<svg viewBox="0 0 860 560" xmlns="http://www.w3.org/2000/svg" font-family="Helvetica,Arial,sans-serif">
<rect width="860" height="560" fill="#18181b"/>
<defs><marker id="a" viewBox="0 0 10 10" refX="8" refY="5" markerWidth="6" markerHeight="6" orient="auto-start-reverse"><path d="M2 1L8 5L2 9" fill="none" stroke="#71717a" stroke-width="1.5" stroke-linecap="round"/></marker></defs>
<text x="430" y="30" text-anchor="middle" fill="#e4e4e7" font-size="16" font-weight="bold">glassbox-trader system</text>
<rect x="30" y="60" width="180" height="200" rx="10" fill="#27272a" stroke="#52525b"/>
<text x="120" y="84" text-anchor="middle" fill="#e4e4e7" font-size="13" font-weight="bold">Data sources</text>
<text x="120" y="112" text-anchor="middle" fill="#a1a1aa" font-size="11">yfinance (prices, OHLC)</text>
<text x="120" y="134" text-anchor="middle" fill="#a1a1aa" font-size="11">Finnhub (news, earnings)</text>
<text x="120" y="156" text-anchor="middle" fill="#a1a1aa" font-size="11">Yahoo RSS (headlines)</text>
<text x="120" y="178" text-anchor="middle" fill="#a1a1aa" font-size="11">SPY / QQQ / VIX</text>
<text x="120" y="200" text-anchor="middle" fill="#a1a1aa" font-size="11">Sector ETFs</text>
<text x="120" y="222" text-anchor="middle" fill="#a1a1aa" font-size="11">Institutional holders</text>
<line x1="210" y1="160" x2="270" y2="160" stroke="#71717a" stroke-width="1.5" marker-end="url(#a)"/>
<rect x="275" y="60" width="300" height="330" rx="10" fill="#0f1f2b" stroke="#38bdf8"/>
<text x="425" y="84" text-anchor="middle" fill="#38bdf8" font-size="13" font-weight="bold">Engine (GitHub Actions, weekdays)</text>
<rect x="295" y="100" width="260" height="40" rx="6" fill="#18181b" stroke="#3f3f46"/>
<text x="425" y="124" text-anchor="middle" fill="#d4d4d8" font-size="11">Screener: CNN scans ~500 tickers</text>
<rect x="295" y="148" width="260" height="40" rx="6" fill="#18181b" stroke="#3f3f46"/>
<text x="425" y="172" text-anchor="middle" fill="#d4d4d8" font-size="11">Data packet per top-10 ticker</text>
<rect x="295" y="196" width="260" height="40" rx="6" fill="#18181b" stroke="#3f3f46"/>
<text x="425" y="220" text-anchor="middle" fill="#d4d4d8" font-size="11">3-round debate: bull vs bear vs judges</text>
<rect x="295" y="244" width="260" height="40" rx="6" fill="#18181b" stroke="#fbbf24"/>
<text x="425" y="268" text-anchor="middle" fill="#fbbf24" font-size="11">Risk gate (code) → BUY / SELL / NO_TRADE</text>
<rect x="295" y="292" width="260" height="40" rx="6" fill="#18181b" stroke="#3f3f46"/>
<text x="425" y="316" text-anchor="middle" fill="#d4d4d8" font-size="11">Shadow models · scoring · lessons · theses</text>
<rect x="295" y="340" width="260" height="36" rx="6" fill="#18181b" stroke="#3f3f46"/>
<text x="425" y="362" text-anchor="middle" fill="#d4d4d8" font-size="11">Quarterly retrain, champion vs challenger</text>
<line x1="575" y1="160" x2="635" y2="160" stroke="#71717a" stroke-width="1.5" marker-end="url(#a)"/>
<rect x="640" y="60" width="190" height="140" rx="10" fill="#27272a" stroke="#52525b"/>
<text x="735" y="84" text-anchor="middle" fill="#e4e4e7" font-size="13" font-weight="bold">Supabase</text>
<text x="735" y="110" text-anchor="middle" fill="#a1a1aa" font-size="10">decisions · news · theses</text>
<text x="735" y="128" text-anchor="middle" fill="#a1a1aa" font-size="10">lessons · positions · trades</text>
<text x="735" y="146" text-anchor="middle" fill="#a1a1aa" font-size="10">screen · models · reports</text>
<text x="735" y="164" text-anchor="middle" fill="#a1a1aa" font-size="10">equity history · context</text>
<text x="735" y="186" text-anchor="middle" fill="#71717a" font-size="9">RLS: public read-only</text>
<line x1="575" y1="300" x2="635" y2="300" stroke="#71717a" stroke-width="1.5" marker-end="url(#a)"/>
<rect x="640" y="240" width="190" height="120" rx="10" fill="#0d2823" stroke="#34d399"/>
<text x="735" y="264" text-anchor="middle" fill="#34d399" font-size="13" font-weight="bold">Alpaca</text>
<text x="735" y="290" text-anchor="middle" fill="#a1a1aa" font-size="10">paper (default) or live</text>
<text x="735" y="308" text-anchor="middle" fill="#a1a1aa" font-size="10">bracket orders: stop + target</text>
<text x="735" y="326" text-anchor="middle" fill="#a1a1aa" font-size="10">calendar · equity · fills</text>
<text x="735" y="346" text-anchor="middle" fill="#71717a" font-size="9">live needs double interlock</text>
<line x1="735" y1="200" x2="735" y2="235" stroke="#71717a" stroke-width="1.5" marker-end="url(#a)"/>
<rect x="275" y="430" width="555" height="100" rx="10" fill="#1e1533" stroke="#a78bfa"/>
<text x="552" y="456" text-anchor="middle" fill="#a78bfa" font-size="13" font-weight="bold">Next.js site on Vercel — glassbox-trader.vercel.app</text>
<text x="552" y="482" text-anchor="middle" fill="#a1a1aa" font-size="11">Briefing · Scan · Signals · News · Track record · Performance · Reports · Insights · Positions</text>
<text x="552" y="504" text-anchor="middle" fill="#71717a" font-size="10">reads Supabase with publishable key · candlestick charts via Yahoo proxy · auto-deploys on push</text>
<line x1="700" y1="205" x2="590" y2="428" stroke="#71717a" stroke-width="1.5" marker-end="url(#a)"/>
</svg>
