<svg viewBox="0 0 680 920" xmlns="http://www.w3.org/2000/svg" font-family="Helvetica,Arial,sans-serif">
<rect width="680" height="920" fill="#18181b"/>
<defs><marker id="a" viewBox="0 0 10 10" refX="8" refY="5" markerWidth="6" markerHeight="6" orient="auto-start-reverse"><path d="M2 1L8 5L2 9" fill="none" stroke="#71717a" stroke-width="1.5" stroke-linecap="round"/></marker></defs>
<rect x="190" y="28" width="300" height="58" rx="8" fill="#27272a" stroke="#52525b"/>
<text x="340" y="52" text-anchor="middle" fill="#e4e4e7" font-size="15" font-weight="bold">Data packet</text>
<text x="340" y="72" text-anchor="middle" fill="#a1a1aa" font-size="11">CNN signal · news · lessons · thesis · position · earnings</text>
<line x1="240" y1="86" x2="185" y2="140" stroke="#71717a" stroke-width="1.5" marker-end="url(#a)"/>
<line x1="440" y1="86" x2="495" y2="140" stroke="#71717a" stroke-width="1.5" marker-end="url(#a)"/>
<rect x="60" y="148" width="250" height="122" rx="12" fill="#0d2823" stroke="#34d399"/>
<text x="185" y="172" text-anchor="middle" fill="#34d399" font-size="14" font-weight="bold">Bull panel</text>
<text x="185" y="190" text-anchor="middle" fill="#a1a1aa" font-size="11">argues for buying</text>
<rect x="80" y="206" width="100" height="44" rx="6" fill="#18181b" stroke="#34d399"/>
<text x="130" y="232" text-anchor="middle" fill="#e4e4e7" font-size="11">Gemini 2.5</text>
<rect x="192" y="206" width="100" height="44" rx="6" fill="#18181b" stroke="#34d399"/>
<text x="242" y="232" text-anchor="middle" fill="#e4e4e7" font-size="11">Llama 3.3 70B</text>
<rect x="370" y="148" width="250" height="122" rx="12" fill="#2b1215" stroke="#fb7185"/>
<text x="495" y="172" text-anchor="middle" fill="#fb7185" font-size="14" font-weight="bold">Bear panel</text>
<text x="495" y="190" text-anchor="middle" fill="#a1a1aa" font-size="11">argues against buying</text>
<rect x="390" y="206" width="100" height="44" rx="6" fill="#18181b" stroke="#fb7185"/>
<text x="440" y="232" text-anchor="middle" fill="#e4e4e7" font-size="11">Mistral small</text>
<rect x="502" y="206" width="100" height="44" rx="6" fill="#18181b" stroke="#fb7185"/>
<text x="552" y="232" text-anchor="middle" fill="#e4e4e7" font-size="11">Llama 3.3 70B</text>
<text x="340" y="298" text-anchor="middle" fill="#71717a" font-size="12">round 1 — independent opening cases (4 calls)</text>
<line x1="185" y1="270" x2="185" y2="336" stroke="#71717a" stroke-width="1.5" marker-end="url(#a)"/>
<line x1="495" y1="270" x2="495" y2="336" stroke="#71717a" stroke-width="1.5" marker-end="url(#a)"/>
<rect x="60" y="344" width="250" height="58" rx="8" fill="#0d2823" stroke="#34d399"/>
<text x="185" y="368" text-anchor="middle" fill="#34d399" font-size="13" font-weight="bold">Bull rebuttal</text>
<text x="185" y="388" text-anchor="middle" fill="#a1a1aa" font-size="11">reads bear cases, replies once</text>
<rect x="370" y="344" width="250" height="58" rx="8" fill="#2b1215" stroke="#fb7185"/>
<text x="495" y="368" text-anchor="middle" fill="#fb7185" font-size="13" font-weight="bold">Bear rebuttal</text>
<text x="495" y="388" text-anchor="middle" fill="#a1a1aa" font-size="11">reads bull cases, replies once</text>
<text x="340" y="436" text-anchor="middle" fill="#71717a" font-size="12">round 2 — one rebuttal each side (2 calls)</text>
<line x1="185" y1="402" x2="255" y2="474" stroke="#71717a" stroke-width="1.5" marker-end="url(#a)"/>
<line x1="495" y1="402" x2="425" y2="474" stroke="#71717a" stroke-width="1.5" marker-end="url(#a)"/>
<rect x="120" y="482" width="440" height="122" rx="12" fill="#1e1533" stroke="#a78bfa"/>
<text x="340" y="506" text-anchor="middle" fill="#a78bfa" font-size="14" font-weight="bold">Judge panel</text>
<text x="340" y="524" text-anchor="middle" fill="#a1a1aa" font-size="11">strikes ungrounded claims, votes independently</text>
<rect x="140" y="540" width="120" height="44" rx="6" fill="#18181b" stroke="#a78bfa"/>
<text x="200" y="566" text-anchor="middle" fill="#e4e4e7" font-size="11">Gemini 2.5</text>
<rect x="280" y="540" width="120" height="44" rx="6" fill="#18181b" stroke="#a78bfa"/>
<text x="340" y="566" text-anchor="middle" fill="#e4e4e7" font-size="11">Llama 3.3 70B</text>
<rect x="420" y="540" width="120" height="44" rx="6" fill="#18181b" stroke="#a78bfa"/>
<text x="480" y="566" text-anchor="middle" fill="#e4e4e7" font-size="11">Mistral small</text>
<text x="340" y="638" text-anchor="middle" fill="#71717a" font-size="12">round 3 — terminal vote (3 calls) · strict majority or NO_TRADE</text>
<line x1="340" y1="604" x2="340" y2="676" stroke="#71717a" stroke-width="1.5" marker-end="url(#a)"/>
<rect x="165" y="684" width="350" height="72" rx="8" fill="#2b2110" stroke="#fbbf24"/>
<text x="340" y="708" text-anchor="middle" fill="#fbbf24" font-size="14" font-weight="bold">Risk gate — pure code</text>
<text x="340" y="726" text-anchor="middle" fill="#a1a1aa" font-size="10">confidence floor · daily trade cap · drawdown halt</text>
<text x="340" y="742" text-anchor="middle" fill="#a1a1aa" font-size="10">thesis-aware holds · no LLM can override</text>
<line x1="340" y1="756" x2="340" y2="806" stroke="#71717a" stroke-width="1.5" marker-end="url(#a)"/>
<rect x="130" y="814" width="420" height="72" rx="8" fill="#27272a" stroke="#52525b"/>
<text x="340" y="840" text-anchor="middle" fill="#e4e4e7" font-size="13" font-weight="bold">Supabase + Alpaca</text>
<text x="340" y="858" text-anchor="middle" fill="#a1a1aa" font-size="10">full transcript stored · BUY becomes bracket order:</text>
<text x="340" y="874" text-anchor="middle" fill="#a1a1aa" font-size="10">ATR stop · 2R target · 1% risk sizing</text>
</svg>
